<svg width="24" height="24" viewBox="0 0 24 24" fill="none" xmlns="http://www.w3.org/2000/svg">
<path d="M13.4048 6.89009C13.2524 6.85566 13.1048 6.75238 13.0458 6.55074C12.9819 6.37369 13.0015 6.18189 13.036 5.995C13.2032 5.06058 13.3606 4.1114 13.5769 3.18189C13.754 2.41959 14.0097 1.67697 14.4622 1.03763C14.7966 0.580249 15.2688 0.196642 15.8294 0.0540195C16.7786 -0.182046 17.172 0.737626 16.8376 1.52943C16.5573 2.18353 15.8933 2.52779 15.4015 2.99992C14.5015 3.86549 14.2212 5.34091 13.9556 6.50648C13.8868 6.80156 13.631 6.94418 13.4048 6.89009Z" fill="url(#paint0_linear_370_2249)"/>
<path d="M11.6579 5.69028C11.3235 5.68045 11.0087 5.63619 10.7038 5.46405C10.4136 5.29684 10.0398 5.00668 9.67591 5.12963C9.29231 5.26242 9.14477 5.8034 8.83493 6.06897C8.40706 6.44274 7.89067 6.64438 7.4087 6.93455C6.99559 7.18045 6.59231 7.45094 6.21854 7.76078C5.471 8.36569 4.82182 9.08864 4.30542 9.8952C3.28739 11.4641 2.78083 13.3329 2.85952 15.1968C3.06116 20.3952 7.55624 24.3985 12.8087 23.9509C17.4857 23.5575 21.1497 19.6083 21.1841 14.9165C21.1939 13.3329 20.7907 11.7542 20.0087 10.3723C19.2562 9.02963 18.1694 7.88864 16.8661 7.07717C15.5333 6.2411 13.989 5.76897 12.4103 5.70012C12.1595 5.69028 11.9136 5.70012 11.6579 5.69028Z" fill="url(#paint1_linear_370_2249)"/>
<path d="M5.35832 2.27206C5.44684 2.02124 5.57471 1.79009 5.77143 1.63271C6.15504 1.31796 6.71569 1.37698 7.03045 1.75567C7.77799 2.65075 7.21733 4.01796 7.1829 5.05075C7.1534 5.91632 7.4534 6.8114 7.80258 7.58353C7.86651 7.73108 7.97963 7.88353 8.00422 8.05567C8.03864 8.33599 7.91569 8.57206 7.68946 8.68026C7.32061 8.86222 7.08454 8.47862 6.92717 8.19829C6.56815 7.54911 6.26815 6.85567 5.97799 6.18189C5.68291 5.47862 5.437 4.76058 5.31405 4.00812C5.2911 3.8737 5.27307 3.73927 5.25995 3.60485C5.24356 3.47698 5.23536 3.35075 5.23536 3.22616C5.21569 2.93108 5.25504 2.58189 5.35832 2.27206Z" fill="url(#paint2_linear_370_2249)"/>
<path fill-rule="evenodd" clip-rule="evenodd" d="M15.4897 19.8343C12.4307 19.8245 9.71592 17.0458 9.42575 13.6474C9.13559 10.2491 11.3684 7.48514 14.4225 7.48022C17.4864 7.48022 20.2208 10.2491 20.5208 13.6671C20.8159 17.0901 18.5585 19.854 15.4897 19.8343ZM20.152 13.4901C20.0192 12.054 19.3897 10.7015 18.3815 9.67858C17.3733 8.66055 16.1044 8.0999 14.8159 8.0999C14.7667 8.0999 14.7192 8.10317 14.6733 8.10973C13.4979 8.14416 12.4208 8.6458 11.6339 9.53104C10.6946 10.5737 10.2471 12.0687 10.4044 13.6278C10.5569 15.0933 11.2061 16.4606 12.2487 17.4687C13.2815 18.4769 14.57 19.0081 15.8831 18.9687C17.0487 18.9294 18.1258 18.4327 18.9176 17.5474C19.8471 16.5048 20.2995 15.0343 20.152 13.4901Z" fill="white"/>
<defs>
<linearGradient id="paint0_linear_370_2249" x1="7.0098" y1="3.71402" x2="10.7339" y2="-3.29003" gradientUnits="userSpaceOnUse">
<stop stop-color="#0066FF"/>
<stop offset="0.2" stop-color="#1677FF"/>
<stop offset="1" stop-color="#04A6FF"/>
</linearGradient>
<linearGradient id="paint1_linear_370_2249" x1="-3.28989" y1="7.12566" x2="18.9726" y2="-0.977256" gradientUnits="userSpaceOnUse">
<stop stop-color="#0066FF"/>
<stop offset="0.2" stop-color="#1677FF"/>
<stop offset="1" stop-color="#04A6FF"/>
</linearGradient>
<linearGradient id="paint2_linear_370_2249" x1="-2.23886" y1="11.4742" x2="-4.24965" y2="3.96945" gradientUnits="userSpaceOnUse">
<stop stop-color="#0066FF"/>
<stop offset="0.2" stop-color="#1677FF"/>
<stop offset="1" stop-color="#04A6FF"/>
</linearGradient>
</defs>
</svg>
