<svg width="24" height="24" viewBox="0 0 24 24" fill="none" xmlns="http://www.w3.org/2000/svg">
<g clip-path="url(#clip0_370_2342)">
<path d="M11.9995 5.6001C8.46461 5.6001 5.59961 8.46557 5.59961 11.9999C5.59961 15.5343 8.46508 18.3998 11.9995 18.3998C15.5338 18.3998 18.3993 15.5343 18.3993 11.9999C18.3993 8.46557 15.5338 5.6001 11.9995 5.6001ZM17.9971 11.8401H17.1965C17.1566 10.5248 16.6288 9.33275 15.7874 8.43838L16.3532 7.8726C17.339 8.91228 17.9568 10.3045 17.9971 11.8406V11.8401ZM15.9595 14.4093C15.9595 14.4093 15.9187 14.3728 15.8985 14.3685C15.8784 14.3643 15.8699 14.3643 15.8334 14.3685C15.7968 14.3728 15.7888 14.4093 15.7888 14.4093C15.7888 14.4093 15.793 14.4501 15.793 14.466C15.793 14.482 15.793 14.5434 15.7888 14.5593C15.7846 14.5757 15.7846 14.6203 15.7846 14.6367C15.7846 14.6531 15.7682 14.677 15.7682 14.677L15.7073 14.7745C15.7073 14.7745 15.6871 14.8026 15.6749 14.8274C15.6627 14.8518 15.6749 14.872 15.6749 14.872V14.9493L15.7359 14.9737L15.7602 14.9901C15.7602 14.9901 15.7523 15.0187 15.7359 15.0388C15.7288 15.0478 15.7345 15.0576 15.7434 15.0665C15.6759 15.149 15.6055 15.2287 15.5329 15.3065L15.3862 15.1598V15.0595L15.3374 15.0393C15.3374 15.0393 15.313 15.0192 15.3009 15.0149C15.2891 15.0112 15.2399 15.0074 15.2329 15.007L15.097 14.871C15.1424 14.7332 15.2184 14.4918 15.246 14.3357C15.6909 13.7188 15.9637 12.9703 15.9955 12.1593H16.836C16.8065 13.0696 16.5257 13.9162 16.0607 14.632C16.0523 14.6226 16.0405 14.616 16.0405 14.616C16.0405 14.616 16.0326 14.5917 16.004 14.5509C15.9754 14.5101 16.004 14.4979 16.004 14.4979L15.9595 14.4084V14.4093ZM15.3065 15.5334C15.2666 15.5709 15.2263 15.6074 15.1851 15.6435C15.1809 15.6435 15.1766 15.6412 15.1748 15.6337C15.1705 15.6173 15.187 15.5521 15.187 15.5521C15.187 15.5521 15.2034 15.479 15.2155 15.471C15.2193 15.4687 15.2245 15.4631 15.2296 15.4565L15.3065 15.5334ZM14.9104 13.544C14.9104 13.5276 14.9062 13.4667 14.9062 13.4667L14.8898 13.4179L14.8532 13.3813H14.833C14.833 13.3813 14.833 13.4179 14.8087 13.4381C14.7843 13.4587 14.7679 13.4788 14.7679 13.4788L14.7234 13.491L14.707 13.5117L14.6868 13.5646C14.6868 13.5646 14.6826 13.5726 14.6784 13.5848C14.6741 13.597 14.6784 13.589 14.6662 13.6293C14.654 13.6701 14.6704 13.6537 14.6455 13.6903C14.6212 13.7268 14.6413 13.7104 14.6212 13.7268C14.601 13.7428 14.5968 13.7479 14.5804 13.7559C14.5645 13.7634 14.5762 13.7718 14.5274 13.7756C14.4787 13.7798 14.4501 13.7798 14.4341 13.7798C14.4182 13.7798 14.3976 13.7559 14.3976 13.7559C14.3976 13.7559 14.361 13.7559 14.414 13.7353C14.467 13.7146 14.4909 13.6781 14.4909 13.6781C14.4909 13.6781 14.5438 13.6373 14.564 13.6293C14.5841 13.6209 14.6207 13.5965 14.6291 13.5848C14.6371 13.5726 14.6493 13.5604 14.6535 13.5482C14.6577 13.536 14.6493 13.5074 14.6493 13.5074C14.6493 13.5074 14.6615 13.4667 14.6901 13.4465C14.7187 13.4263 14.7388 13.4381 14.7552 13.4057L14.7716 13.3734C14.7716 13.3734 14.8246 13.3288 14.8284 13.2923C14.8326 13.2557 14.8612 13.1863 14.8612 13.1863C14.8612 13.1863 14.857 13.1498 14.8691 13.1212C14.8813 13.0926 14.9137 13.056 14.9137 13.056L14.9666 12.9988C14.9666 12.9988 15.0196 12.9417 15.0318 12.9379C15.044 12.9337 15.0848 12.9135 15.0848 12.9135C15.0848 12.9135 15.089 12.9304 15.0927 12.8915C15.097 12.8526 15.0927 12.7959 15.0927 12.7959L15.1457 12.7837C15.1457 12.7837 15.1902 12.7917 15.2024 12.7879C15.2146 12.7837 15.2718 12.7715 15.2718 12.7715C15.2718 12.7715 15.3041 12.7471 15.3205 12.7349C15.337 12.7228 15.3857 12.6942 15.3857 12.6942V12.682L15.4387 12.6618L15.4795 12.6201V12.6009L15.508 12.5418C15.508 12.5418 15.4673 12.5156 15.4673 12.487C15.4673 12.4584 15.463 12.434 15.463 12.434L15.4387 12.4176C15.4387 12.4176 15.4551 12.4176 15.4059 12.4054L15.3571 12.3932C15.3571 12.3932 15.3126 12.3773 15.3004 12.3567C15.2882 12.336 15.2596 12.2915 15.2596 12.2915L15.223 12.1818L15.2104 12.1603H15.6749C15.6482 12.7856 15.4654 13.3706 15.1645 13.8773L15.1457 13.8899C15.1457 13.8899 15.1251 13.9223 15.1007 13.9631C15.0838 13.9912 15.0707 14.016 15.059 14.0446C14.9887 14.1496 14.9132 14.2509 14.8326 14.3479L14.8279 14.3493C14.8279 14.3493 14.7871 14.3493 14.751 14.3699C14.7145 14.3901 14.6943 14.4065 14.6943 14.4065C14.6943 14.4065 14.6779 14.4229 14.661 14.437L14.5134 14.2893C14.5251 14.2893 14.5377 14.2903 14.5523 14.2926C14.601 14.3006 14.6338 14.3048 14.6338 14.3048C14.6338 14.3048 14.6502 14.2846 14.6746 14.2762C14.699 14.2682 14.7805 14.1623 14.7965 14.0526C14.8129 13.9429 14.8495 13.8942 14.8495 13.8942C14.8495 13.8942 14.8659 13.9148 14.8818 13.821L14.8982 13.7278C14.8982 13.7278 14.9104 13.7071 14.9104 13.6954C14.9104 13.6837 14.9146 13.6382 14.9146 13.626C14.9146 13.6138 14.9104 13.5609 14.9104 13.5449V13.544ZM14.1098 10.649L14.1402 10.6701C14.1557 10.6949 14.1707 10.7198 14.1852 10.7451C14.1852 10.7474 14.1843 10.7493 14.1829 10.7507C14.1707 10.7629 14.1585 10.7751 14.1463 10.7751C14.1341 10.7751 14.0934 10.7587 14.0934 10.7587C14.0934 10.7587 14.0812 10.7545 14.077 10.7142C14.0727 10.6734 14.0605 10.649 14.0605 10.649L14.016 10.6284L14.008 10.6003C14.008 10.6003 14.0245 10.5674 14.0282 10.5515C14.0305 10.5431 14.0324 10.5271 14.0338 10.5131C14.0559 10.5431 14.077 10.5731 14.0976 10.604H14.0732L14.1098 10.6485V10.649ZM14.0165 14.3732L14.0245 14.3203L14.0755 14.3024L14.2396 14.4665C14.2255 14.4665 14.2091 14.4656 14.1909 14.4628C14.1421 14.4548 14.1665 14.4585 14.1421 14.4548C14.1177 14.4506 14.0526 14.4384 14.0526 14.4384L14.016 14.4304V14.3737L14.0165 14.3732ZM14.1501 10.2065L14.1613 10.1793C14.1613 10.1793 14.1595 10.177 14.1585 10.176L14.0971 10.1287L14.7121 9.51369C14.8213 9.63275 14.923 9.75932 15.0159 9.89197C15.0182 9.8976 15.0191 9.90463 15.0121 9.90463C14.9999 9.90463 14.9713 9.90885 14.9713 9.90885C14.9713 9.90885 14.9348 9.89244 14.9184 9.89244C14.902 9.89244 14.8654 9.87838 14.8532 9.8751C14.841 9.87182 14.8007 9.85588 14.8007 9.85588C14.7965 9.89244 14.8209 9.92525 14.8415 9.93744C14.8621 9.94963 14.8738 9.93557 14.8841 9.97494C14.8945 10.0143 14.931 10.0185 14.931 10.0185L14.9676 10.0631C14.9676 10.0631 14.9798 10.0345 14.984 10.0185C14.9882 10.0021 14.9957 9.99416 15.0102 9.98994C15.0248 9.98572 15.0412 9.91869 15.0491 9.97494L15.0571 10.0307C15.0571 10.0307 15.0365 10.0392 15.0285 10.0635L15.0205 10.0879L15.0365 10.1367C15.0365 10.1367 15.0688 10.1245 15.0815 10.1367C15.0937 10.1488 15.126 10.1409 15.1387 10.1367C15.149 10.1334 15.1532 10.1592 15.1738 10.1371C15.1921 10.1681 15.2099 10.1995 15.2277 10.2313C15.2226 10.2313 15.2165 10.2309 15.208 10.2299C15.1593 10.2257 15.1227 10.2229 15.1148 10.2084C15.1068 10.1938 15.1148 10.1812 15.0824 10.1854C15.0501 10.1896 15.0337 10.2084 15.0337 10.2084H14.9605V10.2323C14.9605 10.2548 14.932 10.2187 14.9605 10.2632C14.9891 10.3078 14.9929 10.3199 14.9971 10.3321C15.0013 10.3443 15.0257 10.3485 15.0337 10.3645C15.0416 10.3809 15.0337 10.3448 15.0618 10.3874C15.0904 10.4296 15.1227 10.4292 15.1227 10.4292C15.1227 10.4292 15.1265 10.4385 15.141 10.4709C15.1555 10.5032 15.1921 10.5276 15.1921 10.5276C15.1921 10.5276 15.2366 10.5642 15.2409 10.5763C15.2451 10.5885 15.2507 10.5763 15.2662 10.6049C15.2816 10.6335 15.298 10.6579 15.298 10.6579C15.298 10.6579 15.3426 10.6785 15.3632 10.6903L15.3838 10.7024C15.3838 10.7024 15.4124 10.6743 15.4124 10.6617V10.6185C15.4537 10.7207 15.4907 10.8248 15.523 10.9312C15.523 10.9457 15.523 10.9579 15.5221 10.9668C15.5179 10.9996 15.4935 11.0278 15.4935 11.0278C15.4935 11.0278 15.4654 11.0198 15.4405 11.0235C15.4162 11.0278 15.3754 11.0357 15.3754 11.0357C15.3754 11.0357 15.3754 11.0437 15.3712 11.0685C15.367 11.0929 15.3712 11.1454 15.3712 11.1454L15.3754 11.2307L15.351 11.2753L15.3266 11.3038C15.3266 11.3038 15.306 11.3118 15.2859 11.2996L15.2657 11.2874C15.2657 11.2874 15.2577 11.2307 15.2577 11.2059V10.9823C15.2577 10.9823 15.2249 10.9457 15.209 10.9256C15.1926 10.9049 15.1237 10.836 15.1237 10.836C15.1237 10.836 15.0993 10.8238 15.0871 10.8238C15.0749 10.8238 15.0384 10.844 15.0384 10.844L15.0262 10.889C15.0262 10.889 15.014 10.9579 15.014 10.9743C15.014 10.9907 14.9896 11.0188 14.9896 11.0188C14.9896 11.0188 14.9774 11.0146 14.9652 11.0067C14.953 10.9982 14.9287 10.9823 14.9287 10.9823C14.9287 10.9823 14.8963 10.9457 14.8921 10.9335C14.8879 10.9213 14.9001 10.9012 14.9165 10.8928L14.9329 10.8848L14.953 10.8154C14.953 10.8154 14.9165 10.7953 14.8879 10.8032C14.8598 10.8112 14.819 10.8112 14.819 10.8112L14.7702 10.7704L14.7295 10.6931L14.6807 10.6237C14.6807 10.6237 14.6563 10.5951 14.6441 10.5913C14.632 10.5871 14.579 10.559 14.5546 10.5384C14.5302 10.5182 14.4773 10.5018 14.4773 10.5018C14.4773 10.5018 14.4693 10.5262 14.4407 10.5018C14.4299 10.4929 14.4112 10.4906 14.3915 10.4901C14.3816 10.4915 14.3723 10.4934 14.3634 10.4957C14.2987 10.3945 14.2279 10.2974 14.151 10.206L14.1501 10.2065ZM14.4679 9.27041C14.4393 9.254 14.4234 9.24979 14.4234 9.23807C14.4234 9.23572 14.4215 9.2315 14.4187 9.22635C14.4355 9.24088 14.4524 9.25588 14.4688 9.27088C14.4688 9.27088 14.4688 9.27088 14.4684 9.27088L14.4679 9.27041ZM15.5699 11.4459C15.5699 11.4459 15.5695 11.3728 15.5718 11.3606C15.5741 11.3484 15.5615 11.3076 15.5718 11.2954C15.5821 11.2832 15.5718 11.2551 15.5718 11.2551C15.5718 11.2551 15.5802 11.2265 15.5934 11.204C15.6388 11.4103 15.667 11.6226 15.6763 11.8406H15.103C15.1077 11.827 15.1143 11.812 15.1143 11.8045C15.1143 11.7923 15.0899 11.7801 15.1185 11.7599C15.1471 11.7398 15.1715 11.7271 15.1715 11.7271L15.2202 11.646C15.2202 11.646 15.261 11.6179 15.2652 11.6053C15.2695 11.5931 15.253 11.5401 15.253 11.5401L15.2287 11.5157C15.2287 11.5157 15.2287 11.4628 15.2409 11.4468C15.253 11.4304 15.3018 11.3938 15.3018 11.3938C15.3018 11.3938 15.322 11.3896 15.3426 11.3859C15.3632 11.3817 15.3834 11.3779 15.3834 11.3779C15.3834 11.3779 15.4115 11.3334 15.4157 11.3212C15.4199 11.309 15.4199 11.2481 15.4199 11.2481L15.4766 11.1913L15.5095 11.167V11.2321C15.5095 11.2321 15.538 11.2973 15.5095 11.3296C15.4809 11.362 15.4729 11.3784 15.4729 11.407C15.4729 11.4356 15.4687 11.4759 15.4687 11.4881C15.4687 11.5003 15.4771 11.5209 15.4771 11.5209L15.5221 11.541L15.554 11.5368C15.554 11.5368 15.5662 11.5124 15.5704 11.5003C15.5746 11.4881 15.5704 11.4473 15.5704 11.4473L15.5699 11.4459ZM15.9965 11.8401C15.9576 10.8562 15.5638 9.96369 14.939 9.28729L15.1968 9.02947C15.2057 9.03275 15.2123 9.03463 15.2123 9.03463C15.2123 9.03463 15.2568 9.02666 15.2732 9.05479C15.2891 9.08338 15.4073 9.10494 15.4316 9.13494C15.456 9.16447 15.4968 9.19307 15.4968 9.19307C15.4968 9.19307 15.5254 9.18088 15.554 9.21369C15.5826 9.24603 15.7209 9.35666 15.7209 9.35666L15.7818 9.4251C15.7818 9.4251 15.8591 9.46588 15.8751 9.49025C15.8915 9.51463 15.9524 9.5165 15.9524 9.5165C15.9524 9.5165 15.973 9.55494 15.997 9.5165C16.0213 9.4776 16.0251 9.47385 16.0251 9.45369V9.35713L16.0382 9.33228C16.5173 10.0556 16.807 10.9153 16.837 11.8406H15.9965V11.8401ZM14.9695 8.17822C15.0866 8.26916 15.1991 8.36572 15.307 8.46697L15.2479 8.52604C15.2305 8.50119 15.1663 8.41119 15.163 8.40088C15.1588 8.38869 15.0735 8.33572 15.0735 8.33572C15.0735 8.33572 15.0126 8.27478 15.0046 8.25416C15.0004 8.24338 14.9835 8.20916 14.9695 8.17822ZM12.1598 6.00229C13.6959 6.0426 15.088 6.65994 16.1277 7.64619L15.562 8.21197C14.8452 7.53791 13.9377 7.06494 12.9285 6.88307C12.9365 6.88072 12.9454 6.87885 12.9557 6.88025C12.988 6.88447 12.9557 6.88025 13.033 6.88447C13.1104 6.88869 13.033 6.88447 13.033 6.86432V6.81557C13.033 6.81557 13.0898 6.83197 13.1226 6.83197C13.1554 6.83197 13.147 6.79494 13.147 6.79494L13.1184 6.7626C13.1184 6.7626 13.1427 6.77057 13.1713 6.79494C13.1999 6.81885 13.2243 6.78697 13.2365 6.79494C13.2487 6.80244 13.2895 6.77525 13.2895 6.77525L13.2852 6.74291C13.281 6.71057 13.2445 6.71432 13.2445 6.71432L13.1591 6.69791L13.0373 6.69697C13.012 6.69697 12.9974 6.69603 12.9871 6.69557C12.9895 6.69697 12.9904 6.69838 12.9885 6.70119C12.9763 6.71713 12.8704 6.68572 12.8587 6.70166C12.8465 6.71807 12.8263 6.69744 12.8141 6.70166C12.802 6.70588 12.7368 6.73025 12.7045 6.74619C12.6716 6.7626 12.607 6.74619 12.607 6.74619C12.607 6.74619 12.5582 6.76682 12.5174 6.77479C12.4832 6.78135 12.4832 6.79729 12.4626 6.82119C12.3627 6.81229 12.2624 6.80619 12.1607 6.80338V6.00275L12.1598 6.00229ZM12.1598 7.16291C12.2095 7.16432 12.2587 7.16713 12.3079 7.16994C12.3187 7.17838 12.3135 7.18354 12.321 7.18869C12.3332 7.19666 12.4105 7.22104 12.4227 7.22104H12.4673V7.18447C12.4673 7.18447 12.4668 7.18307 12.4663 7.18213C12.9768 7.23088 13.4643 7.35932 13.9162 7.55432C13.9157 7.55432 13.9152 7.55432 13.9148 7.55432C13.8252 7.5665 13.8454 7.55854 13.8252 7.5665C13.8051 7.57447 13.7765 7.55807 13.7521 7.57869C13.7277 7.59932 13.6949 7.61947 13.6949 7.61947V7.70057H13.7273C13.7273 7.70057 13.7516 7.74135 13.7638 7.75775C13.776 7.77416 13.8815 7.85525 13.8815 7.85525L13.9382 7.92088C13.9382 7.92088 13.9832 7.95697 13.9991 7.99775C14.0155 8.03853 14.0437 8.05869 14.0437 8.05869C14.0437 8.05869 14.0521 8.0751 14.0723 8.11963L14.0924 8.16416C14.0924 8.16416 14.1412 8.23729 14.1655 8.24947C14.1899 8.26166 14.2185 8.28182 14.2185 8.28182C14.2185 8.28182 14.2227 8.31416 14.2265 8.33057C14.2307 8.34697 14.2429 8.37932 14.2429 8.37932C14.2429 8.37932 14.2593 8.3915 14.2959 8.38728C14.3324 8.38307 14.3934 8.38822 14.3934 8.38822L14.4543 8.35494L14.4829 8.3465C14.4829 8.3465 14.496 8.35072 14.5363 8.3751C14.5766 8.39947 14.6212 8.50119 14.6212 8.50119C14.6212 8.50119 14.6376 8.53775 14.6212 8.54572C14.6048 8.55369 14.601 8.57432 14.601 8.57432C14.601 8.57432 14.5766 8.61463 14.609 8.62307C14.6413 8.63104 14.7107 8.69244 14.7107 8.69244C14.7107 8.69244 14.8776 8.86307 14.8893 8.86307C14.8982 8.86307 14.901 8.85275 14.917 8.85463L14.7112 9.06041C14.0348 8.43557 13.1423 8.04182 12.1584 8.00291V7.16244L12.1598 7.16291ZM12.1598 8.32354C12.907 8.35541 13.5965 8.61041 14.1637 9.02338C14.1524 9.03979 14.1388 9.05525 14.1388 9.05525V9.13635C14.1388 9.13635 14.1876 9.17291 14.2284 9.20572C14.2691 9.23854 14.2935 9.25822 14.3057 9.27041C14.3132 9.27791 14.3432 9.2976 14.3657 9.31166H14.4623L13.8637 9.91025C13.4057 9.5015 12.8132 9.24135 12.1602 9.20478V8.324L12.1598 8.32354ZM12.2765 13.6898C12.2765 13.6898 12.2723 13.6818 12.3051 13.6898C12.3374 13.6978 12.3745 13.6898 12.3745 13.6898C12.3745 13.6898 12.3946 13.6612 12.4068 13.6612H12.419L12.4963 13.7587L12.553 13.8196C12.553 13.8196 12.5859 13.8398 12.5938 13.8196C12.6018 13.7995 12.6426 13.7953 12.6426 13.7788C12.6426 13.7624 12.6384 13.6978 12.6384 13.6978C12.6384 13.6978 12.6262 13.6246 12.6262 13.6124C12.6262 13.6003 12.622 13.5595 12.622 13.5595C12.622 13.5595 12.6055 13.5065 12.5896 13.4906C12.5887 13.4896 12.5877 13.4887 12.5873 13.4878C12.6276 13.4718 12.667 13.4545 12.7054 13.4357C12.7321 13.4413 12.748 13.4413 12.748 13.4413C12.7766 13.4249 12.7926 13.4128 12.7926 13.4128L12.8432 13.3588C12.8521 13.3532 12.8605 13.3476 12.8695 13.342C12.8868 13.3363 12.9116 13.3307 12.9145 13.3438C12.9187 13.364 12.9388 13.3682 12.9187 13.3846C12.8985 13.401 12.8821 13.4132 12.8657 13.4296C12.8493 13.4456 12.8207 13.4254 12.8048 13.4662L12.7884 13.507L12.8535 13.552C12.8535 13.552 12.8943 13.552 12.8535 13.5721C12.8127 13.5923 12.8413 13.5801 12.8127 13.5923L12.7841 13.6045C12.7841 13.6045 12.7682 13.6209 12.772 13.641C12.7762 13.6612 12.7762 13.6654 12.7879 13.6856C12.8001 13.7062 12.8085 13.7062 12.8123 13.7263C12.8165 13.7465 12.7635 13.7751 12.7635 13.7751L12.7391 13.7831C12.7391 13.7831 12.7105 13.8178 12.6984 13.829C12.6862 13.8403 12.6416 13.8567 12.6416 13.8567C12.6416 13.8567 12.6173 13.8768 12.5849 13.8768C12.5526 13.8768 12.5643 13.881 12.5277 13.8768C12.4912 13.8726 12.4748 13.8787 12.4748 13.8787C12.4748 13.8787 12.4504 13.8482 12.4504 13.8201C12.4504 13.792 12.4424 13.7671 12.4424 13.7671C12.4424 13.7671 12.418 13.7184 12.4059 13.7306C12.3937 13.7428 12.3529 13.7671 12.3529 13.7671C12.3529 13.7671 12.3449 13.7915 12.3407 13.8117C12.3365 13.8318 12.3084 13.7995 12.3487 13.8562L12.3895 13.9129V13.9495L12.3571 13.9696C12.3571 13.9696 12.3205 13.9654 12.3004 13.994C12.2802 14.0226 12.2559 14.0428 12.2559 14.0428C12.2559 14.0428 12.2273 14.0592 12.2109 14.0793L12.1949 14.0999L12.1598 14.1107V13.5913C12.186 13.5885 12.2123 13.5853 12.238 13.5815C12.2371 13.6012 12.2357 13.6265 12.2357 13.6406C12.2357 13.6649 12.2765 13.6893 12.2765 13.6893V13.6898ZM12.7279 14.4009C12.7157 14.3967 12.6627 14.3601 12.6627 14.3601L12.6534 14.3156C12.644 14.2706 12.6534 14.2992 12.6534 14.2992L12.7157 14.3034L12.7565 14.3235H12.7851C12.8137 14.3235 12.8259 14.3315 12.838 14.3357C12.8502 14.3399 12.8666 14.3399 12.8948 14.3437C12.9116 14.346 12.9201 14.3456 12.9238 14.3446C12.8671 14.3671 12.8095 14.3873 12.7504 14.4056C12.7471 14.4056 12.7438 14.4046 12.7401 14.4042C12.7073 14.3999 12.7401 14.4042 12.7279 14.3999V14.4009ZM12.6046 14.4468C12.4729 14.4792 12.3374 14.5012 12.1987 14.512C12.2118 14.5012 12.2259 14.4895 12.2404 14.4778C12.2549 14.4665 12.262 14.4595 12.2648 14.4557C12.2966 14.4529 12.3501 14.4482 12.3585 14.4454C12.3707 14.4412 12.3829 14.4454 12.3951 14.4454C12.4073 14.4454 12.4195 14.4454 12.4316 14.4374C12.4438 14.4295 12.4884 14.3929 12.4884 14.3929C12.4884 14.3929 12.5127 14.3929 12.5249 14.3971C12.5371 14.4013 12.5573 14.4135 12.5573 14.4135L12.6018 14.4459C12.6018 14.4459 12.6027 14.4459 12.6041 14.4468H12.6046ZM12.7973 16.0926C12.8502 16.117 12.9801 16.0682 13.0818 16.1456C13.1835 16.2229 13.2445 16.251 13.2365 16.3003C13.2285 16.349 13.1634 16.3898 13.1634 16.3898C13.1634 16.3898 13.0659 16.4915 13.1512 16.5768C13.2032 16.6288 13.2913 16.6401 13.356 16.6476C12.9749 16.7587 12.5741 16.8238 12.1602 16.8374V15.997C12.3927 15.9876 12.6201 15.959 12.8404 15.9117C12.8427 15.9281 12.8385 15.9515 12.8216 15.9792C12.7851 16.0401 12.7443 16.0687 12.7973 16.0931V16.0926ZM13.3382 14.6165C13.3382 14.6165 13.2651 14.6245 13.2327 14.6573C13.1999 14.6896 13.192 14.7103 13.192 14.7103V14.8078C13.192 14.8078 13.1268 14.7792 13.0579 14.8078C12.989 14.8363 12.936 14.8363 12.936 14.8363C12.936 14.8363 12.8873 14.8443 12.8465 14.8363C12.8057 14.8284 12.7326 14.8401 12.7326 14.8401L12.6595 14.8082C12.6595 14.8082 12.6529 14.8279 12.6543 14.8106L12.5043 14.8776C12.4959 14.8823 12.4841 14.886 12.4766 14.8898C12.4602 14.8978 12.448 14.902 12.4115 14.9099C12.3749 14.9179 12.3791 14.9142 12.3182 14.8856C12.2957 14.8753 12.291 14.8513 12.2938 14.8251L12.1898 14.7942C12.599 14.767 12.9843 14.6517 13.327 14.4674L13.3284 14.4693V14.467C13.5079 14.3699 13.6762 14.2537 13.8295 14.1215H13.8801L13.8993 14.1665C13.8993 14.1665 13.8871 14.1951 13.8993 14.2153C13.9115 14.2354 13.8993 14.2031 13.9115 14.2354C13.9237 14.2678 13.9523 14.2476 13.9115 14.3048C13.8707 14.3615 13.8993 14.3329 13.8707 14.3615C13.8421 14.3901 13.8013 14.4103 13.8013 14.4103C13.8013 14.4103 13.7404 14.4548 13.7202 14.4792C13.7001 14.5035 13.6757 14.5115 13.6757 14.5115C13.6757 14.5115 13.6354 14.5438 13.5946 14.5603C13.5538 14.5762 13.4765 14.5846 13.4765 14.5846C13.4765 14.5846 13.4521 14.564 13.4113 14.5846C13.3705 14.6048 13.3382 14.617 13.3382 14.617V14.6165ZM13.9035 10.4132C13.8993 10.4498 13.8913 10.4784 13.8913 10.4784C13.8913 10.4784 13.8505 10.4863 13.8384 10.4784C13.8262 10.4699 13.7816 10.4456 13.7816 10.4456L13.8923 10.3349C13.8979 10.341 13.9035 10.3476 13.9087 10.3537L13.904 10.356C13.9045 10.3673 13.9073 10.3804 13.904 10.4132H13.9035ZM12.1607 9.4851C12.6712 9.51697 13.1399 9.70072 13.5234 9.99182C13.5102 10.0007 13.4924 10.0171 13.4765 10.0265C13.4559 10.0387 13.4521 10.0429 13.4418 10.0631C13.4315 10.0837 13.4418 10.1142 13.4418 10.1142C13.4418 10.1142 13.4113 10.124 13.3663 10.1165C13.3218 10.1085 13.3176 10.1245 13.2871 10.1188C13.2566 10.1132 13.1915 10.1188 13.1915 10.1188L13.2646 10.1906C13.2646 10.1906 13.2932 10.2257 13.2871 10.2379C13.281 10.2501 13.3382 10.2623 13.3382 10.2623C13.3382 10.2623 13.379 10.2543 13.4235 10.2178C13.4291 10.2131 13.4334 10.2098 13.4366 10.2074C13.4488 10.1971 13.469 10.1685 13.5009 10.1399C13.5332 10.1109 13.5374 10.1245 13.5698 10.1203C13.6026 10.116 13.5698 10.1203 13.582 10.1367C13.5909 10.1488 13.6204 10.1428 13.6349 10.139L13.4207 10.3532C13.4029 10.3546 13.3827 10.3565 13.3827 10.3565C13.3827 10.3565 13.3546 10.3401 13.3218 10.3767C13.2895 10.4132 13.2651 10.4254 13.2651 10.4254C13.2651 10.4254 13.2449 10.4578 13.2163 10.4742C13.1877 10.4906 13.1676 10.4948 13.1676 10.4948L13.1755 10.446L13.2365 10.3851C13.2365 10.3851 13.289 10.3443 13.2871 10.3321C13.2852 10.3199 13.2871 10.2998 13.2871 10.2998V10.2834H13.1793L13.1507 10.3199L13.0612 10.3851L13.0734 10.446L13.094 10.4826C13.094 10.4826 13.0574 10.4784 13.094 10.5028L13.1305 10.5271C13.1305 10.5271 13.1751 10.507 13.1671 10.5717C13.1648 10.589 13.162 10.6031 13.1587 10.6148L13.0682 10.7053L13.0495 10.7137L13.0251 10.7301L12.9805 10.7357C12.8676 10.6481 12.7434 10.5754 12.6093 10.5201C12.6191 10.5126 12.6257 10.5192 12.659 10.4863L12.6955 10.4498C12.6955 10.4498 12.7485 10.3968 12.7485 10.3804C12.7485 10.364 12.7443 10.3232 12.7485 10.3073C12.7527 10.2909 12.7485 10.2299 12.7485 10.2299C12.7485 10.2299 12.7771 10.214 12.7443 10.2098C12.712 10.2056 12.6791 10.2098 12.6791 10.2098C12.6791 10.2098 12.6468 10.2342 12.6262 10.2506C12.6055 10.267 12.6018 10.2628 12.5774 10.2829C12.553 10.3035 12.5287 10.3153 12.5287 10.3153C12.5287 10.3153 12.4841 10.3359 12.4799 10.3518C12.4757 10.3682 12.4635 10.4212 12.4635 10.4212C12.4635 10.4212 12.4635 10.447 12.4607 10.4676C12.3637 10.4385 12.2634 10.4184 12.1598 10.4081V9.4851H12.1607ZM11.8405 6.00229V6.80291C10.5252 6.84275 9.3332 7.37057 8.43883 8.21197L7.87305 7.64619C8.91273 6.66041 10.3049 6.0426 11.841 6.00229H11.8405ZM11.0451 10.4906C10.9434 10.3931 10.8787 10.3523 10.8787 10.3523H10.6837C10.6837 10.3523 10.6448 10.2717 10.468 10.2412L10.3359 10.109C10.7423 9.75088 11.2654 9.52166 11.841 9.48557V10.4085C11.5616 10.4362 11.3038 10.536 11.0854 10.6884C11.0999 10.6542 11.1252 10.5674 11.0455 10.491L11.0451 10.4906ZM10.9232 15.231C10.8988 15.2718 10.8379 15.3243 10.8379 15.3243V15.4138L10.9195 15.4504C10.9195 15.4504 10.9518 15.487 10.9724 15.5156C10.9818 15.5287 10.9865 15.5353 10.9893 15.539C10.4324 15.3801 9.92992 15.0932 9.51461 14.7126L10.1376 14.0896C10.5932 14.496 11.182 14.7557 11.8307 14.7946L11.6741 14.8218C11.647 14.8312 11.6648 14.8232 11.6352 14.8368C11.5987 14.8532 11.542 14.8612 11.5134 14.8813C11.4848 14.902 11.4604 14.9301 11.4604 14.9301C11.4604 14.9301 11.444 14.9381 11.4276 14.9545L11.4112 14.9704C11.4112 14.9704 11.3826 14.9784 11.3137 14.9704C11.2443 14.9624 11.2082 14.9742 11.2082 14.9742C11.2082 14.9742 11.1595 14.9948 11.1309 15.007C11.1023 15.0192 11.0577 15.0478 11.0577 15.0478L10.9766 15.0787C10.9766 15.0787 10.9321 15.0965 10.9279 15.1087C10.9237 15.1209 10.9237 15.0801 10.9237 15.1209V15.1617C10.9237 15.1617 10.948 15.1898 10.9237 15.231H10.9232ZM9.06133 13.597C9.02055 13.4465 8.92305 13.2637 8.9193 13.1132C8.91508 12.9628 8.96805 12.7757 8.93148 12.5765C8.89492 12.3773 8.91086 12.3163 8.93945 12.2348C8.95258 12.1973 8.95961 12.1785 8.95914 12.1598H9.2057C9.24227 12.8123 9.50289 13.4053 9.91117 13.8632L9.2882 14.4862C9.27039 14.4665 9.25258 14.4468 9.23523 14.4271C9.2343 14.4253 9.23336 14.4238 9.23242 14.422C9.18367 14.3245 9.07773 14.1131 9.05336 14.0399C9.02898 13.9668 8.96383 13.8365 8.94367 13.8121C8.92352 13.7878 9.10258 13.747 9.0618 13.5965L9.06133 13.597ZM7.16383 11.8401C7.2032 10.6242 7.69117 9.52213 8.46742 8.69291L9.0618 9.28729C8.49836 9.8976 8.12242 10.6837 8.02586 11.5537C7.97945 11.5926 7.89695 11.6774 7.8782 11.8401H7.16383ZM7.82008 12.1603C7.80367 12.1635 7.78164 12.1635 7.75211 12.1617C7.74508 12.1617 7.73852 12.1607 7.73148 12.1603H7.81961H7.82008ZM8.0207 14.4426C8.10602 14.459 8.17492 14.4018 8.24008 14.4913C8.24008 14.4913 8.64461 14.9699 8.79461 14.9798L8.46695 15.3074C8.15336 14.9723 7.88664 14.5931 7.67758 14.1792C7.8093 14.2907 7.94852 14.429 8.02023 14.4426H8.0207ZM8.74023 11.5926C8.74023 11.5926 8.71961 11.6006 8.70789 11.6006H8.67133C8.67133 11.6006 8.65117 11.572 8.65117 11.5317C8.65117 11.4913 8.63055 11.4543 8.63055 11.4543C8.63055 11.4543 8.62258 11.3812 8.61039 11.361C8.5982 11.3409 8.57383 11.3123 8.56164 11.3001C8.54945 11.2879 8.5293 11.2513 8.5007 11.2349C8.47773 11.2218 8.43461 11.2012 8.40977 11.1956C8.55227 10.5567 8.86117 9.9801 9.28867 9.51416L9.91164 10.1371C9.87133 10.1826 9.83242 10.229 9.79492 10.2768C9.7757 10.2801 9.75602 10.2862 9.73539 10.2965C9.61539 10.4559 9.5118 10.6288 9.42648 10.8112C9.41617 10.8224 9.40492 10.8332 9.38758 10.8445C9.33883 10.8768 9.31867 10.9054 9.29008 10.9626C9.26148 11.0193 9.20477 11.0807 9.20055 11.0924C9.19633 11.1046 9.20477 11.0882 9.15555 11.1168C9.1068 11.1454 9.05805 11.1656 9.05805 11.1656C9.05805 11.1656 8.95258 11.2467 8.93195 11.3076C8.9118 11.3685 8.8668 11.3929 8.86305 11.4135C8.85883 11.4337 8.85461 11.4745 8.85461 11.4745C8.85461 11.4745 8.89117 11.5518 8.89117 11.564C8.89117 11.5762 8.85883 11.6329 8.85883 11.6329C8.85883 11.6329 8.82227 11.6043 8.79789 11.5963C8.77352 11.5879 8.74117 11.5921 8.74117 11.5921L8.74023 11.5926ZM9.97633 10.9176C9.9843 10.9382 9.9843 10.8974 9.9843 10.9382C9.9843 10.979 9.99273 10.9626 9.9843 10.9992L9.97633 11.0357C9.97633 11.0357 9.96414 11.0521 9.95617 11.0681C9.9482 11.0845 9.9482 11.0887 9.94398 11.1046C9.93977 11.121 9.92336 11.1496 9.92336 11.1496L9.89102 11.1904V11.2349C9.89102 11.2349 9.88305 11.2795 9.87883 11.3043C9.87461 11.3287 9.86242 11.361 9.86242 11.361C9.86242 11.361 9.85398 11.3409 9.84602 11.3774C9.83805 11.414 9.83805 11.4182 9.82961 11.4426C9.82164 11.467 9.8582 11.4346 9.82164 11.467C9.78508 11.4993 9.75273 11.4993 9.75273 11.4993C9.75273 11.4993 9.68383 11.5115 9.67117 11.5199C9.65898 11.5279 9.63039 11.5401 9.63039 11.5401C9.63039 11.5401 9.58961 11.5359 9.58961 11.5565V11.6254L9.64633 11.6498C9.64633 11.6498 9.66695 11.6498 9.6993 11.6456C9.73164 11.6413 9.75602 11.6249 9.75602 11.6249C9.75602 11.6249 9.78039 11.609 9.81273 11.617C9.84508 11.6249 9.82492 11.609 9.84508 11.6249C9.86523 11.6413 9.87367 11.6334 9.87742 11.6699C9.88164 11.7065 9.89383 11.7553 9.89383 11.7553C9.89383 11.7553 9.93836 11.8237 10.0068 11.8401H9.48508C9.4893 11.7745 9.49586 11.7093 9.50477 11.6451C9.5132 11.6292 9.52023 11.6151 9.52398 11.6048C9.54039 11.556 9.54836 11.5031 9.54836 11.5031V11.4178C9.54836 11.4178 9.54836 11.4163 9.54836 11.4154C9.60555 11.1749 9.69695 10.9476 9.81789 10.7395C9.83055 10.762 9.83758 10.7756 9.83758 10.7756L9.89852 10.8163C9.89852 10.8163 9.85398 10.7999 9.89852 10.8285C9.94305 10.8571 9.97586 10.8937 9.97586 10.8937C9.97586 10.8937 9.96789 10.8979 9.97586 10.9181L9.97633 10.9176ZM8.93945 11.6493C8.99242 11.5762 8.93945 11.5195 8.93945 11.5195C8.93945 11.5195 8.95586 11.4135 9.01258 11.3606C9.0693 11.3081 9.09367 11.316 9.14289 11.3404C9.17242 11.3554 9.2043 11.369 9.22961 11.3765C9.24273 11.3817 9.25586 11.3849 9.26805 11.3873C9.23523 11.534 9.21414 11.6854 9.20523 11.8401H8.92633C8.92773 11.796 8.92211 11.7585 8.89492 11.7388C8.8218 11.6859 8.88695 11.7224 8.93945 11.6493ZM10.1095 13.6649C9.75133 13.2585 9.52211 12.7354 9.48602 12.1598H10.2913C10.2979 12.172 10.3059 12.1832 10.3138 12.1898C10.3382 12.2099 10.379 12.2184 10.379 12.2184C10.379 12.2184 10.3968 12.2132 10.4141 12.2034C10.453 12.5081 10.5768 12.786 10.762 13.0124L10.1095 13.6649ZM10.0541 10.3996C10.072 10.3776 10.0907 10.356 10.1095 10.3349L10.162 10.3874C10.1404 10.394 10.1226 10.3968 10.1226 10.3968C10.1226 10.3968 10.101 10.4329 10.0541 10.3996ZM10.1376 9.91025L9.51461 9.28729C10.1329 8.7201 10.9457 8.36197 11.841 8.32354V9.20432C11.1885 9.24088 10.5955 9.5015 10.1376 9.90979V9.91025ZM9.2882 9.06088L8.69383 8.4665C9.52305 7.69025 10.6251 7.20228 11.841 7.16291V8.00338C10.8571 8.04229 9.96461 8.43604 9.2882 9.06088ZM7.64711 7.87213L8.21289 8.43791C7.40477 9.29713 6.88539 10.4315 6.81086 11.6859C6.80102 11.6742 6.79305 11.6653 6.79305 11.6653L6.73211 11.6817C6.73211 11.6817 6.70773 11.7103 6.71148 11.7384C6.7157 11.767 6.71148 11.7463 6.72789 11.7829C6.7382 11.8054 6.75133 11.827 6.75977 11.8396H6.70492L6.68758 11.8153C6.68758 11.8153 6.67539 11.8195 6.6632 11.8274C6.65102 11.8354 6.62664 11.8317 6.62664 11.8317C6.62664 11.8317 6.62242 11.7501 6.61867 11.7342C6.61445 11.7178 6.58211 11.6854 6.58211 11.6854C6.58211 11.6854 6.57414 11.6165 6.56195 11.6165C6.54977 11.6165 6.52117 11.6123 6.52117 11.6123L6.48039 11.5471L6.4518 11.5387C6.4518 11.5387 6.38664 11.5631 6.37445 11.5874C6.36227 11.6118 6.32992 11.6362 6.32992 11.6362C6.32992 11.6362 6.26477 11.6484 6.25258 11.6568C6.24039 11.6648 6.18367 11.6971 6.18367 11.6971C6.18367 11.6971 6.16914 11.7257 6.14195 11.7665C6.13211 11.7815 6.12695 11.8063 6.1232 11.8396H6.00367C6.04398 10.3035 6.66133 8.91135 7.64758 7.87166L7.64711 7.87213ZM6.0032 12.1598H6.07492C6.05102 12.2746 6.04539 12.3112 6.04539 12.3524C6.04539 12.4012 6.05758 12.9056 6.14711 12.922C6.21977 12.9351 6.10633 12.5924 6.20383 12.4912C6.30133 12.3895 6.32195 12.3243 6.32195 12.3243C6.32195 12.3243 6.36648 12.4949 6.42789 12.6009C6.48883 12.7063 6.50945 12.8451 6.56008 12.8324C6.6107 12.8203 6.58633 12.5765 6.60273 12.5765C6.61914 12.5765 6.67586 12.8123 6.77383 12.922C6.87133 13.0317 6.86336 13.1413 6.87133 12.8568C6.87133 12.854 6.87133 12.8521 6.87133 12.8493C7.04242 13.8899 7.52195 14.8265 8.21383 15.562L7.64805 16.1278C6.66227 15.0881 6.04445 13.6959 6.00414 12.1598H6.0032ZM11.841 17.9976C10.3049 17.9573 8.91273 17.3399 7.87305 16.3537L8.43883 15.7879C9.3332 16.6293 10.5257 17.1571 11.8405 17.197V17.9976H11.841ZM11.841 16.837C10.6251 16.7976 9.52305 16.3096 8.69383 15.5334L9.2418 14.9854C9.30977 15.0267 9.37258 15.059 9.43914 15.0717C10.0949 15.6192 10.9288 15.9604 11.841 15.9965V16.837ZM11.841 13.7085C11.8307 13.717 11.8223 13.7259 11.8223 13.7348C11.8223 13.747 11.7899 13.7629 11.8223 13.7878C11.8302 13.7934 11.8359 13.7976 11.841 13.8013V14.0737C11.8321 14.0924 11.8232 14.1145 11.8302 14.1168C11.8335 14.1182 11.8373 14.1192 11.841 14.1206V14.4463H11.8077C11.8077 14.4463 11.6638 14.4548 11.6516 14.4463C11.6395 14.4384 11.6273 14.4501 11.6273 14.4501C11.6273 14.4501 11.6024 14.4628 11.5963 14.4876C11.1177 14.4103 10.6841 14.1984 10.3363 13.8913L10.9888 13.2388C11.226 13.4329 11.5195 13.5599 11.8415 13.5923V13.709L11.841 13.7085ZM12.0848 13.357C12.0848 13.357 12.082 13.357 12.0805 13.357C12.0543 13.3584 12.0276 13.3593 12.0009 13.3593C11.9741 13.3593 11.9474 13.3584 11.9212 13.357C11.9198 13.357 11.9184 13.357 11.917 13.357C11.8912 13.3551 11.8659 13.3532 11.841 13.3499C11.5855 13.3199 11.3516 13.2192 11.1595 13.0673C11.0755 13.0012 10.9996 12.9253 10.933 12.8409C10.7816 12.6487 10.6804 12.4148 10.6504 12.1593C10.6476 12.134 10.6452 12.1087 10.6434 12.0834C10.6434 12.082 10.6434 12.0806 10.6434 12.0792C10.6424 12.067 10.6424 12.0543 10.6424 12.0421C10.6907 12.0609 10.7329 12.111 10.7329 12.111L10.7802 12.1448C10.7802 12.1448 10.7929 12.1448 10.8084 12.1288C10.8238 12.1129 10.8135 12.1087 10.8135 12.1087C10.8135 12.1087 10.8416 12.1035 10.8468 12.0956C10.852 12.0881 10.852 12.0646 10.8571 12.0567C10.8623 12.0492 10.8698 11.9924 10.8726 11.9765C10.8754 11.961 10.8857 11.9535 10.8984 11.9432C10.911 11.9329 10.9138 11.9226 10.9138 11.9123C10.9138 11.902 10.9293 11.8888 10.9316 11.8734C10.9345 11.8579 10.9316 11.8528 10.9265 11.8453C10.9213 11.8378 10.9035 11.8349 10.9035 11.8349C10.9035 11.8349 10.8595 11.8321 10.852 11.8321C10.8445 11.8321 10.8159 11.8349 10.8159 11.8349L10.762 11.8481H10.739C10.7479 11.7768 10.7629 11.7074 10.783 11.6404C10.7891 11.6282 10.7962 11.6165 10.8013 11.6165C10.8135 11.6165 10.8463 11.5921 10.8463 11.5921C10.8463 11.5921 10.8749 11.5879 10.8909 11.5842C10.9073 11.5799 10.9518 11.5884 10.9518 11.5884C10.9518 11.5884 10.956 11.5884 10.9804 11.6207C11.0048 11.6531 11.0212 11.6938 11.0212 11.6938C11.0212 11.6938 11.0296 11.7262 11.0212 11.7384C11.0132 11.7506 11.0132 11.7304 10.9846 11.7585C10.956 11.7871 10.948 11.7506 10.956 11.7871C10.9645 11.8237 10.9804 11.8317 10.9804 11.8317L11.0577 11.811C11.0577 11.811 11.062 11.7993 11.0685 11.7974C11.0563 11.7918 11.0699 11.7684 11.0699 11.7618C11.0699 11.7538 11.1187 11.7618 11.1187 11.7618H11.2612V11.8063L11.2124 11.8228C11.2124 11.8228 11.1838 11.8228 11.1393 11.8003C11.0943 11.7778 11.1027 11.7984 11.076 11.8003C11.0793 11.8031 11.083 11.8092 11.0868 11.8195C11.1032 11.864 11.083 11.8396 11.1032 11.864L11.1238 11.8884C11.1238 11.8884 11.1074 11.9249 11.0952 11.9292C11.083 11.9334 11.0343 11.9413 11.0343 11.9413C11.0343 11.9413 11.0465 11.8926 11.0099 11.8884C10.9734 11.8842 10.957 11.9006 10.957 11.9006L10.9246 11.9699L10.9124 11.9943C10.9124 11.9943 10.8838 12.0107 10.896 12.0309C10.9082 12.051 10.9368 12.051 10.9368 12.051C10.9368 12.051 10.9649 12.059 10.9771 12.0674C10.9893 12.0754 10.9405 12.0754 10.9893 12.0754H11.038C11.038 12.0754 11.0746 12.0187 11.1234 12.0065C11.1721 11.9943 11.2002 11.9657 11.2087 11.9535C11.2166 11.9413 11.286 11.8804 11.286 11.8804L11.339 11.8884V11.9493C11.339 11.9493 11.2982 11.9695 11.2823 11.9981C11.2659 12.0267 11.1885 12.1115 11.1641 12.1279C11.1398 12.1443 11.1032 12.1485 11.091 12.1565C11.0788 12.1645 10.9893 12.1767 10.9813 12.1888C10.9734 12.201 10.8918 12.2699 10.888 12.2943C10.8838 12.3187 10.8229 12.4003 10.8515 12.4204C10.8801 12.441 10.888 12.4162 10.941 12.396C10.994 12.3759 11.0793 12.4082 11.1037 12.4204C11.128 12.4326 11.1773 12.457 11.197 12.4448C11.2176 12.4326 11.2621 12.3595 11.2743 12.3393C11.2865 12.3187 11.3188 12.2699 11.3596 12.2456C11.4004 12.2212 11.4248 12.201 11.437 12.156C11.4491 12.111 11.4576 12.0463 11.4576 12.0463V11.969L11.4777 11.8879V11.8392L11.4126 11.8382L11.3718 11.826L11.3962 11.7974C11.3962 11.7974 11.4126 11.7731 11.4205 11.7529C11.4285 11.7328 11.4327 11.7328 11.4412 11.7201C11.4491 11.7079 11.4655 11.7042 11.482 11.6957C11.4984 11.6873 11.5026 11.6873 11.5227 11.6713C11.5434 11.6549 11.5227 11.647 11.4984 11.6226C11.474 11.5982 11.4984 11.6226 11.4862 11.6184C11.474 11.6142 11.4332 11.6348 11.4332 11.6348L11.4046 11.6756L11.4004 11.7121L11.376 11.7567L11.3559 11.7768C11.3357 11.7974 11.3235 11.789 11.3235 11.789L11.3357 11.7646L11.3277 11.7159H11.2462C11.2462 11.7159 11.2218 11.7079 11.2016 11.6957C11.181 11.6835 11.1937 11.6756 11.1937 11.6592C11.1937 11.6428 11.2101 11.6348 11.2101 11.6348C11.2101 11.6348 11.2546 11.6634 11.2668 11.6676C11.279 11.6718 11.2874 11.6756 11.2874 11.6756C11.2874 11.6756 11.3076 11.6756 11.332 11.6592C11.3563 11.6428 11.3441 11.6268 11.3441 11.6268C11.3441 11.6268 11.3685 11.6226 11.3807 11.6226C11.3929 11.6226 11.4093 11.6146 11.4093 11.6146L11.4538 11.6024L11.4618 11.5738C11.4698 11.5453 11.4618 11.5738 11.466 11.5617C11.4702 11.5495 11.4618 11.5373 11.4374 11.5087L11.4009 11.5288L11.3727 11.5453L11.2302 11.5865C11.2424 11.5663 11.2588 11.5457 11.2588 11.5457C11.2588 11.5457 11.271 11.5579 11.2912 11.5617C11.3015 11.5635 11.3085 11.5537 11.3132 11.5429C11.3179 11.5321 11.3198 11.5209 11.3198 11.5209C11.3198 11.5209 11.3034 11.5288 11.3404 11.4965C11.377 11.4642 11.4173 11.4276 11.4299 11.4154C11.4421 11.4032 11.4501 11.4032 11.4787 11.3788C11.5073 11.3545 11.5316 11.3826 11.5518 11.3582C11.572 11.3338 11.5762 11.3259 11.6005 11.3217C11.6249 11.3174 11.6329 11.3174 11.6615 11.3015C11.6901 11.2851 11.6985 11.2729 11.7102 11.2692C11.7224 11.2649 11.7548 11.2242 11.7548 11.2242C11.7548 11.2242 11.7913 11.196 11.7913 11.1834C11.7913 11.1707 11.7791 11.159 11.7913 11.1468L11.8035 11.1346C11.8035 11.1346 11.8157 11.0981 11.8279 11.0615L11.8401 11.0249V10.9963L11.8555 10.9757C11.8555 10.9757 11.8687 10.9678 11.8766 10.9551C11.8846 10.9429 11.8766 10.9106 11.8766 10.9106L11.8799 10.8899L11.8551 10.829C11.8551 10.829 11.8265 10.8454 11.8799 10.8004C11.9329 10.7559 11.9174 10.7798 11.9329 10.7563C11.9329 10.7521 11.9338 10.7465 11.9362 10.739C11.9591 10.6692 11.8752 10.7423 11.8752 10.7423C11.8752 10.7465 11.8738 10.7507 11.8551 10.7638C11.8152 10.7924 11.7702 10.8248 11.7702 10.8248C11.7702 10.8248 11.7295 10.8534 11.7051 10.8778C11.6807 10.9021 11.7173 10.8984 11.6605 10.9265C11.6038 10.9546 11.624 10.9467 11.6038 10.9546C11.5837 10.9626 11.5916 10.9588 11.5387 10.9668C11.4857 10.9748 11.437 10.9748 11.437 10.9748C11.437 10.9748 11.4004 10.9424 11.3718 10.9303C11.362 10.926 11.3507 10.9228 11.3404 10.9204C11.3132 10.8951 11.2916 10.8703 11.2743 10.8478C11.4421 10.7413 11.6348 10.6706 11.842 10.6462C11.8673 10.6434 11.8926 10.641 11.9179 10.6392C11.9193 10.6392 11.9207 10.6392 11.9221 10.6392C11.9484 10.6378 11.9751 10.6368 12.0018 10.6368C12.0107 10.6368 12.0191 10.6373 12.028 10.6378C12.014 10.6888 12.0093 10.7367 12.0093 10.7367C12.0112 10.7662 12.0229 10.8088 12.0102 10.8248C11.9938 10.8449 11.9901 10.882 11.9901 10.8937C11.9901 10.9054 11.9943 10.9546 11.9901 10.9748C11.9859 10.9949 11.9821 11.0235 11.9901 11.0559C11.998 11.0882 12.022 11.0882 12.0201 11.1088C12.0182 11.1295 12.0548 11.1656 12.0548 11.1656L12.1035 11.1942H12.1602L12.1804 11.1576L12.2535 11.1412L12.3187 11.1942C12.3187 11.1942 12.3065 11.2471 12.3187 11.2593C12.3309 11.2715 12.3187 11.3001 12.3187 11.3001H12.396L12.449 11.3207C12.449 11.3207 12.4284 11.4384 12.449 11.4712C12.4691 11.5035 12.4977 11.5279 12.4977 11.5279C12.4977 11.5279 12.5057 11.5359 12.5221 11.5279C12.5385 11.5195 12.583 11.4993 12.583 11.4993L12.636 11.4707C12.636 11.4707 12.628 11.4829 12.636 11.5073C12.644 11.5317 12.697 11.5312 12.697 11.5312C12.697 11.5312 12.7377 11.5021 12.7255 11.5312C12.7134 11.5603 12.7054 11.5724 12.6726 11.5926C12.6398 11.6128 12.6116 11.6212 12.6116 11.6212C12.6116 11.6212 12.5873 11.617 12.5788 11.6456C12.5709 11.6742 12.5788 11.7473 12.5788 11.7473H12.6726V11.8734H12.6318C12.6318 11.8734 12.583 11.8448 12.5751 11.8734C12.5671 11.902 12.5184 11.9057 12.5184 11.9057C12.5184 11.9057 12.4495 11.9587 12.4373 11.9667C12.4251 11.9746 12.3923 11.999 12.3923 11.999C12.3923 11.999 12.3477 12.0599 12.3351 12.0642C12.3229 12.0684 12.2943 12.0928 12.2943 12.0928L12.3309 12.1251C12.3309 12.1251 12.396 12.0763 12.4082 12.0763C12.4204 12.0763 12.4527 12.0679 12.4527 12.0679L12.4893 12.0885C12.4893 12.0885 12.5015 12.1288 12.5216 12.1251C12.5418 12.1213 12.6234 12.097 12.6234 12.1251C12.6234 12.1532 12.6843 12.1617 12.6923 12.1781C12.7002 12.1945 12.7166 12.1903 12.749 12.2067C12.7813 12.2231 12.8629 12.2067 12.8629 12.2067L12.9032 12.2142C12.9032 12.2142 12.8666 12.2474 12.8465 12.276C12.8263 12.3046 12.7977 12.3328 12.802 12.3534C12.8062 12.3735 12.8915 12.3942 12.9037 12.4101C12.9159 12.4265 12.9116 12.4265 12.9609 12.4509L13.0096 12.4753C13.0096 12.4753 13.0382 12.4832 13.0541 12.4954C13.0621 12.5015 13.0724 12.5015 13.0804 12.5001L12.9726 12.5728H12.9196C12.9196 12.5728 12.891 12.5915 12.8502 12.6168L12.8095 12.6421L12.7279 12.6168C12.7279 12.6168 12.6834 12.6342 12.6955 12.6421C12.7077 12.6501 12.7851 12.7031 12.7851 12.7031L12.8666 12.764C12.8666 12.764 12.8704 12.7926 12.8746 12.8048C12.8788 12.817 12.9154 12.8535 12.9154 12.8535V12.8657C12.8835 12.9004 12.8498 12.9332 12.8137 12.9642C12.7996 12.9515 12.7846 12.9393 12.7654 12.9351C12.7288 12.9271 12.7696 12.9107 12.7818 12.9107C12.794 12.9107 12.8348 12.8887 12.8348 12.8887V12.8053C12.8348 12.8053 12.8062 12.7888 12.794 12.7767C12.7818 12.7645 12.7452 12.7279 12.7452 12.7279L12.6557 12.7035C12.6557 12.7035 12.5859 12.6993 12.554 12.6956C12.5216 12.6913 12.4851 12.6876 12.4851 12.6876L12.4162 12.6998L12.3918 12.7199L12.3674 12.8053C12.3674 12.8053 12.351 12.8948 12.351 12.9271V12.9984C12.351 12.9984 12.3552 13.0448 12.3552 13.057V13.1057L12.3759 13.1423H12.4124C12.4124 13.1423 12.4813 13.1503 12.4898 13.1423C12.4977 13.1343 12.5301 13.1137 12.5545 13.1057C12.5788 13.0978 12.5995 13.0898 12.5995 13.0898C12.5995 13.0898 12.6159 13.0898 12.6304 13.0945C12.5784 13.1245 12.5249 13.1517 12.4687 13.1746C12.4598 13.1709 12.4485 13.1671 12.4363 13.1671C12.4077 13.1671 12.3632 13.2079 12.3632 13.2079H12.351C12.351 13.2079 12.351 13.2117 12.3501 13.2159C12.3501 13.2159 12.3074 13.2623 12.2755 13.3303C12.238 13.3378 12.1996 13.3438 12.1612 13.3481C12.1359 13.3509 12.1105 13.3532 12.0852 13.3551L12.0848 13.357ZM12.1607 17.9976V17.197C12.7466 17.1792 13.3077 17.0648 13.8295 16.8688C13.911 16.919 13.9588 16.9396 14.0095 16.9504C14.0662 16.9626 14.1599 16.8571 14.2818 16.8243C14.4037 16.792 14.4974 16.7549 14.6113 16.6495C14.7252 16.544 14.908 16.4709 14.9934 16.3242C15.0215 16.2759 15.044 16.236 15.0623 16.2028C15.2376 16.0748 15.4049 15.936 15.5629 15.7874L16.1287 16.3532C15.089 17.339 13.6968 17.9568 12.1607 17.9971V17.9976ZM16.3551 16.1278L15.7893 15.562C16.6307 14.6676 17.1585 13.4751 17.1984 12.1603H17.999C17.9587 13.6963 17.3413 15.0885 16.3551 16.1282V16.1278Z" fill="#1A2E5A"/>
<path d="M6.5271 13.8984C6.5885 13.8206 6.35553 13.4124 6.35553 13.4124C6.28616 13.4166 6.46569 13.9763 6.5271 13.8984Z" fill="#1A2E5A"/>
<path d="M4.85477 5.52869C4.7582 5.4476 4.61195 5.41291 4.4732 5.57791L4.1582 5.95338L4.55758 6.28854L4.87258 5.91307C5.01133 5.7476 4.95133 5.60932 4.85477 5.52869Z" fill="#1A2E5A"/>
<path d="M5.83687 6.29417C5.73375 6.20745 5.57719 6.16995 5.43844 6.33542L5.09766 6.74182L5.52797 7.10276L5.86875 6.69635C6.0075 6.53088 5.94 6.38088 5.83687 6.29417Z" fill="#1A2E5A"/>
<path d="M12.0006 0.800049C5.815 0.800049 0.800781 5.81427 0.800781 11.9999C0.800781 18.1855 5.815 23.1997 12.0006 23.1997C18.1862 23.1997 23.2005 18.1855 23.2005 11.9999C23.2005 5.81427 18.1862 0.800049 12.0006 0.800049ZM19.7594 4.7563L19.1856 6.57552L20.418 5.54146L20.9237 6.1438L18.4722 8.20067L18.0302 7.6738L18.6039 5.85458L17.3716 6.88864L16.8658 6.2863L19.3173 4.22942L19.7594 4.7563ZM14.703 3.80661L15.6142 1.96021L16.3136 2.30521L15.4103 4.13567C15.28 4.39958 15.3489 4.62224 15.5809 4.73661C15.813 4.85099 16.0394 4.77411 16.1697 4.51021L17.073 2.67974L17.7723 3.02474L16.8611 4.87114C16.5531 5.49458 15.8645 5.65161 15.273 5.35958C14.6814 5.06755 14.395 4.42911 14.703 3.80567V3.80661ZM10.5086 1.39771H11.2816L12.0006 2.80911L12.7197 1.39771H13.4927V4.59786H12.7061V3.06505L12.2523 3.85583H11.7489L11.2952 3.06505V4.59786H10.5086V1.39724V1.39771ZM8.24594 2.03427L9.16656 3.90599C9.49891 4.58192 9.1225 5.16927 8.58672 5.43317C8.25484 5.5963 8.00359 5.62067 7.65766 5.50302L7.89344 4.82099C8.02469 4.86552 8.12406 4.88614 8.28016 4.80974C8.49625 4.70333 8.59328 4.50692 8.45922 4.23505L7.54656 2.37927L8.24641 2.03521L8.24594 2.03427ZM3.96484 5.08677C4.39234 4.57724 4.90656 4.54489 5.32984 4.90021C5.60875 5.13411 5.60172 5.45708 5.59 5.57614C5.73578 5.52833 6.03344 5.43224 6.37797 5.72099C6.84625 6.1138 6.82656 6.65474 6.45953 7.09208L5.56375 8.15942L3.11219 6.10255L3.96437 5.08677H3.96484ZM3.76891 14.9361L4.01734 15.7002L3.36766 15.2282L2.71797 15.7002L2.96641 14.9361L2.31672 14.4641H3.12016L3.36859 13.7L3.61703 14.4641H4.42047L3.77078 14.9361H3.76891ZM12.0011 18.8005C8.24547 18.8005 5.20094 15.756 5.20094 12.0004C5.20094 8.24474 8.24547 5.20021 12.0011 5.20021C15.7567 5.20021 18.8012 8.24474 18.8012 12.0004C18.8012 15.756 15.7567 18.8005 12.0011 18.8005ZM20.635 15.2282L19.9853 15.7002L20.2338 14.9361L19.5841 14.4641H20.3875L20.6359 13.7L20.8844 14.4641H21.6878L21.0381 14.9361L21.2866 15.7002L20.6369 15.2282H20.635Z" fill="#1A2E5A"/>
<path d="M12 0C5.37281 0 0 5.37281 0 12C0 18.6272 5.37281 24 12 24C18.6272 24 24 18.6272 24 12C24 5.37281 18.6272 0 12 0ZM12 23.6002C5.59359 23.6002 0.399844 18.4069 0.399844 12C0.399844 5.59313 5.59359 0.399844 12 0.399844C18.4064 0.399844 23.6002 5.59313 23.6002 12C23.6002 18.4069 18.4069 23.6002 12 23.6002Z" fill="#1A2E5A"/>
</g>
<defs>
<clipPath id="clip0_370_2342">
<rect width="24" height="24" fill="white"/>
</clipPath>
</defs>
</svg>
