<?xml version="1.0" encoding="utf-8"?>
<!-- Generator: Adobe Illustrator 25.2.1, SVG Export Plug-In . SVG Version: 6.00 Build 0)  -->
<svg version="1.1" id="svg2581" xmlns:svg="http://www.w3.org/2000/svg"
	 xmlns="http://www.w3.org/2000/svg" xmlns:xlink="http://www.w3.org/1999/xlink" x="0px" y="0px" viewBox="0 0 1024 681"
	 style="enable-background:new 0 0 1024 681;" xml:space="preserve">
<style type="text/css">
	.st0{fill:#0091EA;}
</style>
<path id="path2539" class="st0" d="M802.2,234.9c-13.7-8.8-35.5-16.7-65.7-16.7c-63.2,0-97.6,45.3-109.6,102.7   c-17.2,81.9,19.4,116.7,63.6,116.7c20.5,0,28.6-5.6,28.6-5.6l15.8-76.1h-48.3l10-48.3h115.7l-35.1,164.9c0,0-33.9,15.2-92.2,15.2   c-91.1,0-149.3-71.3-128.5-169.1C577.1,221.3,647.8,168,737.3,168c25.3,0,56.9,4.3,77.9,13.9L802.2,234.9z M416.2,481.2h69.4   L549.8,175h-69.4L416.2,481.2z M406.7,234.9c-17.1-8.2-41.2-16-64.8-16c-24.1,0-47.9,5.6-52.6,29.6c-4.5,23.4,16.5,37.3,51.7,56.7   c57,31.6,62.1,68.2,54.9,102.6c-11.7,56.1-63,80.1-123.5,79.5c-56.4-0.6-95.7-19.9-95.7-19.9l13.4-53.4   c12.9,7.8,47.7,23.1,84.1,23.1c33.1,0,47.3-12.4,51.1-30.6c5-24-6.5-39.3-39-57.4c-43.3-24.1-77.9-50.3-67.5-99.9   c13-62.2,71.6-81.2,121.1-81.2c28,0,57.1,3.7,80.6,13.4L406.7,234.9z"/>
<path id="path2543" class="st0" d="M1003.7,340.5c0,176.8-220.1,320.1-491.7,320.1c-271.6,0-491.7-143.3-491.7-320.1   C20.3,163.7,240.5,20.4,512,20.4C783.5,20.4,1003.7,163.7,1003.7,340.5z M512,64.1c-249,0-450.9,123.8-450.9,276.5   C61.1,493.2,263,616.9,512,616.9c249,0,450.9-123.8,450.9-276.4C962.9,187.8,761,64.1,512,64.1z"/>
</svg>
